<svg width="24" height="25" viewBox="0 0 24 25" fill="none" xmlns="http://www.w3.org/2000/svg">
<path d="M9.5 16.6489C7.68333 16.6489 6.14583 16.0198 4.8875 14.7614C3.62917 13.5031 3 11.9656 3 10.1489C3 8.33226 3.62917 6.79476 4.8875 5.53643C6.14583 4.27809 7.68333 3.64893 9.5 3.64893C11.3167 3.64893 12.8542 4.27809 14.1125 5.53643C15.3708 6.79476 16 8.33226 16 10.1489C16 10.8823 15.8833 11.5739 15.65 12.2239C15.4167 12.8739 15.1 13.4489 14.7 13.9489L20.3 19.5489C20.4833 19.7323 20.575 19.9656 20.575 20.2489C20.575 20.5323 20.4833 20.7656 20.3 20.9489C20.1167 21.1323 19.8833 21.2239 19.6 21.2239C19.3167 21.2239 19.0833 21.1323 18.9 20.9489L13.3 15.3489C12.8 15.7489 12.225 16.0656 11.575 16.2989C10.925 16.5323 10.2333 16.6489 9.5 16.6489ZM9.5 14.6489C10.75 14.6489 11.8125 14.2114 12.6875 13.3364C13.5625 12.4614 14 11.3989 14 10.1489C14 8.89893 13.5625 7.83643 12.6875 6.96143C11.8125 6.08643 10.75 5.64893 9.5 5.64893C8.25 5.64893 7.1875 6.08643 6.3125 6.96143C5.4375 7.83643 5 8.89893 5 10.1489C5 11.3989 5.4375 12.4614 6.3125 13.3364C7.1875 14.2114 8.25 14.6489 9.5 14.6489Z" fill="#F0F0F0"/>
</svg>
