<svg width="25" height="25" viewBox="0 0 25 25" fill="none" xmlns="http://www.w3.org/2000/svg">
<path d="M19.7891 8.5249C20.3195 8.5249 20.8282 8.31419 21.2033 7.93912C21.5783 7.56404 21.7891 7.05534 21.7891 6.5249C21.7891 5.99447 21.5783 5.48576 21.2033 5.11069C20.8282 4.73562 20.3195 4.5249 19.7891 4.5249H5.78906C5.25863 4.5249 4.74992 4.73562 4.37485 5.11069C3.99978 5.48576 3.78906 5.99447 3.78906 6.5249C3.78906 7.05534 3.99978 7.56404 4.37485 7.93912C4.74992 8.31419 5.25863 8.5249 5.78906 8.5249M19.7891 8.5249H5.78906M19.7891 8.5249V18.5249C19.7891 19.0553 19.5783 19.564 19.2033 19.9391C18.8282 20.3142 18.3195 20.5249 17.7891 20.5249H7.78906C7.25863 20.5249 6.74992 20.3142 6.37485 19.9391C5.99978 19.564 5.78906 19.0553 5.78906 18.5249V8.5249M10.7891 12.5249H14.7891" stroke="#F0F0F0" stroke-width="2" stroke-linecap="round" stroke-linejoin="round"/>
</svg>
