<svg width="81" height="81" viewBox="0 0 81 81" fill="none" xmlns="http://www.w3.org/2000/svg">
<circle cx="40.0312" cy="40.8975" r="40" fill="#CABDF5"/>
<path d="M45.8646 42.5641C44.3175 42.5641 42.8338 43.1787 41.7398 44.2727C40.6458 45.3666 40.0312 46.8504 40.0312 48.3975M40.0312 48.3975V50.0641M40.0312 48.3975C40.0312 46.8504 39.4167 45.3666 38.3227 44.2727C37.2287 43.1787 35.745 42.5641 34.1979 42.5641M40.0312 48.3975V31.7308M40.0312 50.0641C40.0312 51.6112 40.6458 53.095 41.7398 54.1889C42.8338 55.2829 44.3175 55.8975 45.8646 55.8975C47.4117 55.8975 48.8954 55.2829 49.9894 54.1889C51.0833 53.095 51.6979 51.6112 51.6979 50.0641V47.0641M40.0312 50.0641C40.0312 51.6112 39.4167 53.095 38.3227 54.1889C37.2287 55.2829 35.745 55.8975 34.1979 55.8975C32.6508 55.8975 31.1671 55.2829 30.0731 54.1889C28.9792 53.095 28.3646 51.6112 28.3646 50.0641V47.0641M49.1979 47.5641C50.745 47.5641 52.2287 46.9495 53.3227 45.8556C54.4167 44.7616 55.0312 43.2779 55.0312 41.7308C55.0312 40.1837 54.4167 38.7 53.3227 37.606C52.2287 36.512 50.745 35.8975 49.1979 35.8975H48.3646M51.6979 36.3975V31.7308C51.6979 30.1837 51.0833 28.7 49.9894 27.606C48.8954 26.512 47.4117 25.8975 45.8646 25.8975C44.3175 25.8975 42.8338 26.512 41.7398 27.606C40.6458 28.7 40.0312 30.1837 40.0312 31.7308M40.0312 31.7308C40.0312 30.1837 39.4167 28.7 38.3227 27.606C37.2287 26.512 35.745 25.8975 34.1979 25.8975C32.6508 25.8975 31.1671 26.512 30.0731 27.606C28.9792 28.7 28.3646 30.1837 28.3646 31.7308V36.3975M30.8646 47.5641C29.3175 47.5641 27.8338 46.9495 26.7398 45.8556C25.6458 44.7616 25.0312 43.2779 25.0312 41.7308C25.0312 40.1837 25.6458 38.7 26.7398 37.606C27.8338 36.512 29.3175 35.8975 30.8646 35.8975H31.6979" stroke="#191919" stroke-width="3" stroke-linecap="round" stroke-linejoin="round"/>
</svg>
