<svg width="81" height="81" viewBox="0 0 81 81" fill="none" xmlns="http://www.w3.org/2000/svg">
<circle cx="40.0312" cy="40.8975" r="40" fill="#CABDF5"/>
<path d="M35.0286 45.8976L45.0286 35.8976M38.362 30.8973L39.1336 30.004C40.6967 28.4412 42.8165 27.5633 45.0267 27.5635C47.237 27.5636 49.3567 28.4418 50.9195 30.0048C52.4823 31.5678 53.3601 33.6876 53.36 35.8979C53.3598 38.1082 52.4817 40.2279 50.9186 41.7907L50.0286 42.564M41.6955 50.8976L41.0339 51.7876C39.4526 53.3513 37.3185 54.2283 35.0947 54.2283C32.8709 54.2283 30.7368 53.3513 29.1555 51.7876C28.3761 51.017 27.7574 50.0993 27.3351 49.0879C26.9128 48.0764 26.6953 46.9912 26.6953 45.8951C26.6953 44.799 26.9128 43.7138 27.3351 42.7024C27.7574 41.6909 28.3761 40.7733 29.1555 40.0026L30.0289 39.231" stroke="#191919" stroke-width="3" stroke-linecap="round" stroke-linejoin="round"/>
</svg>
