<svg width="81" height="81" viewBox="0 0 81 81" fill="none" xmlns="http://www.w3.org/2000/svg">
<circle cx="40.0312" cy="40.8975" r="40" fill="#1F1F1F"/>
<path d="M25.0312 47.5641C25.0312 48.8902 25.558 50.162 26.4957 51.0997C27.4334 52.0373 28.7052 52.5641 30.0312 52.5641C31.3573 52.5641 32.6291 52.0373 33.5668 51.0997C34.5045 50.162 35.0312 48.8902 35.0312 47.5641C35.0312 46.238 34.5045 44.9663 33.5668 44.0286C32.6291 43.0909 31.3573 42.5641 30.0312 42.5641C28.7052 42.5641 27.4334 43.0909 26.4957 44.0286C25.558 44.9663 25.0312 46.238 25.0312 47.5641Z" stroke="#CABDF5" stroke-width="3" stroke-linecap="round" stroke-linejoin="round"/>
<path d="M43.3646 52.5641C43.3646 53.4482 43.7158 54.296 44.3409 54.9212C44.966 55.5463 45.8139 55.8975 46.6979 55.8975C47.582 55.8975 48.4298 55.5463 49.0549 54.9212C49.6801 54.296 50.0312 53.4482 50.0312 52.5641C50.0312 51.6801 49.6801 50.8322 49.0549 50.2071C48.4298 49.582 47.582 49.2308 46.6979 49.2308C45.8139 49.2308 44.966 49.582 44.3409 50.2071C43.7158 50.8322 43.3646 51.6801 43.3646 52.5641Z" stroke="#CABDF5" stroke-width="3" stroke-linecap="round" stroke-linejoin="round"/>
<path d="M36.6979 33.3975C36.6979 35.3866 37.4881 37.2942 38.8946 38.7008C40.3011 40.1073 42.2088 40.8975 44.1979 40.8975C46.187 40.8975 48.0947 40.1073 49.5012 38.7008C50.9077 37.2942 51.6979 35.3866 51.6979 33.3975C51.6979 31.4083 50.9077 29.5007 49.5012 28.0942C48.0947 26.6876 46.187 25.8975 44.1979 25.8975C42.2088 25.8975 40.3011 26.6876 38.8946 28.0942C37.4881 29.5007 36.6979 31.4083 36.6979 33.3975Z" stroke="#CABDF5" stroke-width="3" stroke-linecap="round" stroke-linejoin="round"/>
</svg>
