<svg width="81" height="81" viewBox="0 0 81 81" fill="none" xmlns="http://www.w3.org/2000/svg">
<circle cx="40.0312" cy="40.7246" r="40" fill="#1F1F1F"/>
<path d="M33.3646 55.7249H46.6979M40.0312 49.0583V55.7249M40.0312 49.0583C42.2414 49.0583 44.361 48.1803 45.9238 46.6175C47.4866 45.0547 48.3646 42.9351 48.3646 40.7249V27.3916H31.6979V40.7249C31.6979 42.9351 32.5759 45.0547 34.1387 46.6175C35.7015 48.1803 37.8211 49.0583 40.0312 49.0583ZM25.0312 35.7249C25.0312 36.609 25.3824 37.4568 26.0076 38.082C26.6327 38.7071 27.4805 39.0583 28.3646 39.0583C29.2486 39.0583 30.0965 38.7071 30.7216 38.082C31.3467 37.4568 31.6979 36.609 31.6979 35.7249C31.6979 34.8409 31.3467 33.993 30.7216 33.3679C30.0965 32.7428 29.2486 32.3916 28.3646 32.3916C27.4805 32.3916 26.6327 32.7428 26.0076 33.3679C25.3824 33.993 25.0312 34.8409 25.0312 35.7249ZM48.3646 35.7249C48.3646 36.609 48.7158 37.4568 49.3409 38.082C49.966 38.7071 50.8139 39.0583 51.6979 39.0583C52.582 39.0583 53.4298 38.7071 54.0549 38.082C54.6801 37.4568 55.0312 36.609 55.0312 35.7249C55.0312 34.8409 54.6801 33.993 54.0549 33.3679C53.4298 32.7428 52.582 32.3916 51.6979 32.3916C50.8139 32.3916 49.966 32.7428 49.3409 33.3679C48.7158 33.993 48.3646 34.8409 48.3646 35.7249Z" stroke="#CABDF5" stroke-width="3" stroke-linecap="round" stroke-linejoin="round"/>
</svg>
