<svg width="20" height="20" viewBox="0 0 20 20" fill="none" xmlns="http://www.w3.org/2000/svg">
<path d="M9.9974 7.50033V10.8337M9.9974 13.3337H10.0057M8.63281 2.99298L1.87781 14.2713C1.73856 14.5125 1.66487 14.7859 1.66407 15.0644C1.66327 15.3428 1.7354 15.6166 1.87327 15.8586C2.01114 16.1005 2.20995 16.3022 2.44993 16.4434C2.68991 16.5847 2.96269 16.6607 3.24114 16.6638H16.7528C17.0311 16.6606 17.3038 16.5846 17.5437 16.4434C17.7835 16.3022 17.9822 16.1006 18.1201 15.8588C18.2579 15.617 18.3301 15.3433 18.3294 15.065C18.3287 14.7866 18.2552 14.5133 18.1161 14.2721L11.3611 2.99215C11.219 2.75757 11.0188 2.5636 10.7799 2.42898C10.5409 2.29436 10.2713 2.22363 9.99698 2.22363C9.7227 2.22363 9.45306 2.29436 9.2141 2.42898C8.97514 2.5636 8.77493 2.75757 8.63281 2.99215V2.99298Z" stroke="#CABDF5" stroke-width="2" stroke-linecap="round" stroke-linejoin="round"/>
</svg>
