<svg width="24" height="25" viewBox="0 0 24 25" fill="none" xmlns="http://www.w3.org/2000/svg">
<path d="M14.001 10.1607C13.4181 9.64841 12.6601 9.38054 11.8848 9.41276C11.1095 9.44498 10.3764 9.77482 9.83798 10.3337C9.30038 10.8915 9 11.636 9 12.4107C9 13.1854 9.30038 13.9299 9.83798 14.4877C10.3764 15.0465 11.1095 15.3764 11.8848 15.4086C12.6601 15.4408 13.4181 15.173 14.001 14.6607M3 12.4102C3 13.5921 3.23279 14.7624 3.68508 15.8543C4.13738 16.9462 4.80031 17.9384 5.63604 18.7741C6.47177 19.6098 7.46392 20.2728 8.55585 20.7251C9.64778 21.1774 10.8181 21.4102 12 21.4102C13.1819 21.4102 14.3522 21.1774 15.4442 20.7251C16.5361 20.2728 17.5282 19.6098 18.364 18.7741C19.1997 17.9384 19.8626 16.9462 20.3149 15.8543C20.7672 14.7624 21 13.5921 21 12.4102C21 11.2283 20.7672 10.0579 20.3149 8.96601C19.8626 7.87408 19.1997 6.88192 18.364 6.0462C17.5282 5.21047 16.5361 4.54753 15.4442 4.09524C14.3522 3.64295 13.1819 3.41016 12 3.41016C10.8181 3.41016 9.64778 3.64295 8.55585 4.09524C7.46392 4.54753 6.47177 5.21047 5.63604 6.0462C4.80031 6.88192 4.13738 7.87408 3.68508 8.96601C3.23279 10.0579 3 11.2283 3 12.4102Z" stroke="white" stroke-width="2" stroke-linecap="round" stroke-linejoin="round"/>
</svg>
