<svg width="24" height="25" viewBox="0 0 24 25" fill="none" xmlns="http://www.w3.org/2000/svg">
<path d="M9 19.4106C4.7 20.8106 4.7 16.9106 3 16.4106M15 21.4106V17.9106C15 16.9106 15.1 16.5106 14.5 15.9106C17.3 15.6106 20 14.5106 20 9.9106C19.9988 8.71556 19.5325 7.5679 18.7 6.7106C19.0905 5.67256 19.0545 4.52222 18.6 3.5106C18.6 3.5106 17.5 3.2106 15.1 4.8106C13.0672 4.28118 10.9328 4.28118 8.9 4.8106C6.5 3.2106 5.4 3.5106 5.4 3.5106C4.94548 4.52222 4.90953 5.67256 5.3 6.7106C4.46745 7.5679 4.00122 8.71556 4 9.9106C4 14.5106 6.7 15.6106 9.5 15.9106C8.9 16.5106 8.9 17.1106 9 17.9106V21.4106" stroke="white" stroke-width="2" stroke-linecap="round" stroke-linejoin="round"/>
</svg>
