<svg width="24" height="25" viewBox="0 0 24 25" fill="none" xmlns="http://www.w3.org/2000/svg">
<path d="M8 11.4102V16.4102M8 8.41016V8.42016M12 16.4102V11.4102M16 16.4102V13.4102C16 12.8797 15.7893 12.371 15.4142 11.9959C15.0391 11.6209 14.5304 11.4102 14 11.4102C13.4696 11.4102 12.9609 11.6209 12.5858 11.9959C12.2107 12.371 12 12.8797 12 13.4102M4 6.41016C4 5.87972 4.21071 5.37102 4.58579 4.99594C4.96086 4.62087 5.46957 4.41016 6 4.41016H18C18.5304 4.41016 19.0391 4.62087 19.4142 4.99594C19.7893 5.37102 20 5.87972 20 6.41016V18.4102C20 18.9406 19.7893 19.4493 19.4142 19.8244C19.0391 20.1994 18.5304 20.4102 18 20.4102H6C5.46957 20.4102 4.96086 20.1994 4.58579 19.8244C4.21071 19.4493 4 18.9406 4 18.4102V6.41016Z" stroke="white" stroke-width="2" stroke-linecap="round" stroke-linejoin="round"/>
</svg>
