<svg width="24" height="25" viewBox="0 0 24 25" fill="none" xmlns="http://www.w3.org/2000/svg">
<path d="M2 8.41016C2 7.34929 2.42143 6.33187 3.17157 5.58173C3.92172 4.83158 4.93913 4.41016 6 4.41016H18C19.0609 4.41016 20.0783 4.83158 20.8284 5.58173C21.5786 6.33187 22 7.34929 22 8.41016V16.4102C22 17.471 21.5786 18.4884 20.8284 19.2386C20.0783 19.9887 19.0609 20.4102 18 20.4102H6C4.93913 20.4102 3.92172 19.9887 3.17157 19.2386C2.42143 18.4884 2 17.471 2 16.4102V8.41016Z" stroke="white" stroke-width="2" stroke-linecap="round" stroke-linejoin="round"/>
<path d="M10 9.41016L15 12.4102L10 15.4102V9.41016Z" stroke="white" stroke-width="2" stroke-linecap="round" stroke-linejoin="round"/>
</svg>
