<svg width="24" height="25" viewBox="0 0 24 25" fill="none" xmlns="http://www.w3.org/2000/svg">
<path d="M12 9.41016H12.01M11 12.4102H12V16.4102H13M3 12.4102C3 13.5921 3.23279 14.7624 3.68508 15.8543C4.13738 16.9462 4.80031 17.9384 5.63604 18.7741C6.47177 19.6098 7.46392 20.2728 8.55585 20.7251C9.64778 21.1774 10.8181 21.4102 12 21.4102C13.1819 21.4102 14.3522 21.1774 15.4442 20.7251C16.5361 20.2728 17.5282 19.6098 18.364 18.7741C19.1997 17.9384 19.8626 16.9462 20.3149 15.8543C20.7672 14.7624 21 13.5921 21 12.4102C21 10.0232 20.0518 7.73402 18.364 6.0462C16.6761 4.35837 14.3869 3.41016 12 3.41016C9.61305 3.41016 7.32387 4.35837 5.63604 6.0462C3.94821 7.73402 3 10.0232 3 12.4102Z" stroke="white" stroke-width="2" stroke-linecap="round" stroke-linejoin="round"/>
</svg>
