<svg width="24" height="25" viewBox="0 0 24 25" fill="none" xmlns="http://www.w3.org/2000/svg">
<path d="M9.5 9.41016H9.51M14.5 9.41016H14.51M9.5 13.4102C9.82588 13.7428 10.2148 14.007 10.6441 14.1874C11.0734 14.3678 11.5344 14.4607 12 14.4607C12.4656 14.4607 12.9266 14.3678 13.3559 14.1874C13.7852 14.007 14.1741 13.7428 14.5 13.4102M18 4.41016C18.7956 4.41016 19.5587 4.72623 20.1213 5.28884C20.6839 5.85145 21 6.61451 21 7.41016V15.4102C21 16.2058 20.6839 16.9689 20.1213 17.5315C19.5587 18.0941 18.7956 18.4102 18 18.4102H13L8 21.4102V18.4102H6C5.20435 18.4102 4.44129 18.0941 3.87868 17.5315C3.31607 16.9689 3 16.2058 3 15.4102V7.41016C3 6.61451 3.31607 5.85145 3.87868 5.28884C4.44129 4.72623 5.20435 4.41016 6 4.41016H18Z" stroke="white" stroke-width="2" stroke-linecap="round" stroke-linejoin="round"/>
</svg>
