<svg width="24" height="25" viewBox="0 0 24 25" fill="none" xmlns="http://www.w3.org/2000/svg">
<path d="M4 7.41016H7C7.26522 7.41016 7.51957 7.3048 7.70711 7.11726C7.89464 6.92973 8 6.67537 8 6.41016V5.41016C8 4.87972 8.21071 4.37102 8.58579 3.99594C8.96086 3.62087 9.46957 3.41016 10 3.41016C10.5304 3.41016 11.0391 3.62087 11.4142 3.99594C11.7893 4.37102 12 4.87972 12 5.41016V6.41016C12 6.67537 12.1054 6.92973 12.2929 7.11726C12.4804 7.3048 12.7348 7.41016 13 7.41016H16C16.2652 7.41016 16.5196 7.51551 16.7071 7.70305C16.8946 7.89059 17 8.14494 17 8.41016V11.4102C17 11.6754 17.1054 11.9297 17.2929 12.1173C17.4804 12.3048 17.7348 12.4102 18 12.4102H19C19.5304 12.4102 20.0391 12.6209 20.4142 12.9959C20.7893 13.371 21 13.8797 21 14.4102C21 14.9406 20.7893 15.4493 20.4142 15.8244C20.0391 16.1994 19.5304 16.4102 19 16.4102H18C17.7348 16.4102 17.4804 16.5155 17.2929 16.703C17.1054 16.8906 17 17.1449 17 17.4102V20.4102C17 20.6754 16.8946 20.9297 16.7071 21.1173C16.5196 21.3048 16.2652 21.4102 16 21.4102H13C12.7348 21.4102 12.4804 21.3048 12.2929 21.1173C12.1054 20.9297 12 20.6754 12 20.4102V19.4102C12 18.8797 11.7893 18.371 11.4142 17.9959C11.0391 17.6209 10.5304 17.4102 10 17.4102C9.46957 17.4102 8.96086 17.6209 8.58579 17.9959C8.21071 18.371 8 18.8797 8 19.4102V20.4102C8 20.6754 7.89464 20.9297 7.70711 21.1173C7.51957 21.3048 7.26522 21.4102 7 21.4102H4C3.73478 21.4102 3.48043 21.3048 3.29289 21.1173C3.10536 20.9297 3 20.6754 3 20.4102V17.4102C3 17.1449 3.10536 16.8906 3.29289 16.703C3.48043 16.5155 3.73478 16.4102 4 16.4102H5C5.53043 16.4102 6.03914 16.1994 6.41421 15.8244C6.78929 15.4493 7 14.9406 7 14.4102C7 13.8797 6.78929 13.371 6.41421 12.9959C6.03914 12.6209 5.53043 12.4102 5 12.4102H4C3.73478 12.4102 3.48043 12.3048 3.29289 12.1173C3.10536 11.9297 3 11.6754 3 11.4102V8.41016C3 8.14494 3.10536 7.89059 3.29289 7.70305C3.48043 7.51551 3.73478 7.41016 4 7.41016Z" stroke="white" stroke-width="2" stroke-linecap="round" stroke-linejoin="round"/>
</svg>
