<svg width="24" height="25" viewBox="0 0 24 25" fill="none" xmlns="http://www.w3.org/2000/svg">
<path d="M6.10156 15.4102H17.9016M9 3.41016H15M14.0033 3.41016V10.7522C15.0551 11.1236 15.9825 11.7809 16.6814 12.6501C17.3804 13.5194 17.8231 14.5664 17.96 15.6734C18.0969 16.7803 17.9225 17.9036 17.4564 18.917C16.9903 19.9303 16.2509 20.7937 15.3213 21.4102H8.68634C7.75616 20.7939 7.01624 19.9306 6.54969 18.917C6.08315 17.9034 5.90847 16.7799 6.04528 15.6725C6.18209 14.5651 6.62497 13.5179 7.32416 12.6483C8.02335 11.7788 8.95116 11.1215 10.0033 10.7502V3.41016H14.0033Z" stroke="white" stroke-width="2" stroke-linecap="round" stroke-linejoin="round"/>
</svg>
