<svg width="24" height="25" viewBox="0 0 24 25" fill="none" xmlns="http://www.w3.org/2000/svg">
<path d="M6.5 7.91016C6.5 8.17537 6.60536 8.42973 6.79289 8.61726C6.98043 8.8048 7.23478 8.91016 7.5 8.91016C7.76522 8.91016 8.01957 8.8048 8.20711 8.61726C8.39464 8.42973 8.5 8.17537 8.5 7.91016C8.5 7.64494 8.39464 7.39059 8.20711 7.20305C8.01957 7.01551 7.76522 6.91016 7.5 6.91016C7.23478 6.91016 6.98043 7.01551 6.79289 7.20305C6.60536 7.39059 6.5 7.64494 6.5 7.91016Z" stroke="white" stroke-width="2" stroke-linecap="round" stroke-linejoin="round"/>
<path d="M3 6.41016V11.5822C3.00011 12.1125 3.2109 12.6212 3.586 12.9962L11.296 20.7062C11.748 21.158 12.3609 21.4119 13 21.4119C13.6391 21.4119 14.252 21.158 14.704 20.7062L20.296 15.1142C20.7479 14.6622 21.0017 14.0493 21.0017 13.4102C21.0017 12.771 20.7479 12.1581 20.296 11.7062L12.586 3.99616C12.211 3.62106 11.7024 3.41027 11.172 3.41016H6C5.20435 3.41016 4.44129 3.72623 3.87868 4.28884C3.31607 4.85145 3 5.61451 3 6.41016Z" stroke="white" stroke-width="2" stroke-linecap="round" stroke-linejoin="round"/>
</svg>
