<svg width="28" height="28" viewBox="0 0 28 28" fill="none" xmlns="http://www.w3.org/2000/svg">
<path d="M18.0833 15.1667C17.0004 15.1667 15.9618 15.5969 15.196 16.3626C14.4302 17.1284 14 18.167 14 19.25M14 19.25V20.4167M14 19.25C14 18.167 13.5698 17.1284 12.804 16.3626C12.0382 15.5969 10.9996 15.1667 9.91667 15.1667M14 19.25V7.58333M14 20.4167C14 21.4996 14.4302 22.5382 15.196 23.304C15.9618 24.0698 17.0004 24.5 18.0833 24.5C19.1663 24.5 20.2049 24.0698 20.9707 23.304C21.7365 22.5382 22.1667 21.4996 22.1667 20.4167V18.3167M14 20.4167C14 21.4996 13.5698 22.5382 12.804 23.304C12.0382 24.0698 10.9996 24.5 9.91667 24.5C8.8337 24.5 7.79509 24.0698 7.02931 23.304C6.26354 22.5382 5.83333 21.4996 5.83333 20.4167V18.3167M20.4167 18.6667C21.4996 18.6667 22.5382 18.2365 23.304 17.4707C24.0698 16.7049 24.5 15.6663 24.5 14.5833C24.5 13.5004 24.0698 12.4618 23.304 11.696C22.5382 10.9302 21.4996 10.5 20.4167 10.5H19.8333M22.1667 10.85V7.58333C22.1667 6.50037 21.7365 5.46175 20.9707 4.69598C20.2049 3.93021 19.1663 3.5 18.0833 3.5C17.0004 3.5 15.9618 3.93021 15.196 4.69598C14.4302 5.46175 14 6.50037 14 7.58333M14 7.58333C14 6.50037 13.5698 5.46175 12.804 4.69598C12.0382 3.93021 10.9996 3.5 9.91667 3.5C8.8337 3.5 7.79509 3.93021 7.02931 4.69598C6.26354 5.46175 5.83333 6.50037 5.83333 7.58333V10.85M7.58333 18.6667C6.50037 18.6667 5.46175 18.2365 4.69598 17.4707C3.93021 16.7049 3.5 15.6663 3.5 14.5833C3.5 13.5004 3.93021 12.4618 4.69598 11.696C5.46175 10.9302 6.50037 10.5 7.58333 10.5H8.16667" stroke="#CABDF5" stroke-width="2" stroke-linecap="round" stroke-linejoin="round"/>
</svg>
