<svg width="24" height="24" viewBox="0 0 24 24" fill="none" xmlns="http://www.w3.org/2000/svg">
<path d="M6 21V19C6 17.9391 6.42143 16.9217 7.17157 16.1716C7.92172 15.4214 8.93913 15 10 15H10.5M8 7C8 8.06087 8.42143 9.07828 9.17157 9.82843C9.92172 10.5786 10.9391 11 12 11C13.0609 11 14.0783 10.5786 14.8284 9.82843C15.5786 9.07828 16 8.06087 16 7C16 5.93913 15.5786 4.92172 14.8284 4.17157C14.0783 3.42143 13.0609 3 12 3C10.9391 3 9.92172 3.42143 9.17157 4.17157C8.42143 4.92172 8 5.93913 8 7ZM17.8022 20.8175L15.6302 21.9555C15.5657 21.989 15.4932 22.004 15.4208 21.9987C15.3483 21.9934 15.2787 21.9681 15.2198 21.9256C15.1609 21.8831 15.1149 21.825 15.0871 21.7579C15.0593 21.6907 15.0506 21.6172 15.0622 21.5455L15.4772 19.1345L13.7202 17.4275C13.6677 17.3768 13.6306 17.3123 13.613 17.2416C13.5955 17.1708 13.5981 17.0965 13.6208 17.0271C13.6434 16.9578 13.6851 16.8962 13.741 16.8494C13.797 16.8026 13.8649 16.7725 13.9372 16.7625L16.3652 16.4105L17.4512 14.2175C17.4837 14.1521 17.5337 14.0972 17.5957 14.0588C17.6577 14.0204 17.7292 14 17.8022 14C17.8751 14 17.9466 14.0204 18.0086 14.0588C18.0707 14.0972 18.1207 14.1521 18.1532 14.2175L19.2392 16.4105L21.6672 16.7625C21.7392 16.7728 21.8069 16.8031 21.8626 16.85C21.9184 16.8968 21.9598 16.9583 21.9824 17.0275C22.005 17.0967 22.0078 17.1708 21.9904 17.2415C21.973 17.3122 21.9363 17.3766 21.8842 17.4275L20.1272 19.1345L20.5412 21.5445C20.5536 21.6163 20.5456 21.6902 20.5182 21.7578C20.4907 21.8254 20.4448 21.8839 20.3858 21.9267C20.3267 21.9695 20.2569 21.9949 20.1841 22C20.1114 22.005 20.0386 21.9896 19.9742 21.9555L17.8022 20.8175Z" stroke="#CABDF5" stroke-width="2" stroke-linecap="round" stroke-linejoin="round"/>
</svg>
