<svg width="28" height="29" viewBox="0 0 28 29" fill="none" xmlns="http://www.w3.org/2000/svg">
<path d="M14 9.05648C12.8463 9.05648 11.7185 9.3986 10.7592 10.0396C9.79989 10.6805 9.05222 11.5916 8.61071 12.6575C8.16919 13.7234 8.05368 14.8963 8.27876 16.0278C8.50384 17.1594 9.05941 18.1988 9.87521 19.0146C10.691 19.8304 11.7304 20.386 12.862 20.6111C13.9935 20.8361 15.1664 20.7206 16.2323 20.2791C17.2982 19.8376 18.2093 19.0899 18.8502 18.1306C19.4912 17.1714 19.8333 16.0435 19.8333 14.8898M15.1706 4.45414C13.0077 4.21149 10.8228 4.64697 8.91824 5.70034C7.01363 6.75372 5.48344 8.37292 4.53932 10.334C3.5952 12.295 3.28381 14.501 3.64824 16.6468C4.01267 18.7925 5.0349 20.772 6.57352 22.3114C8.11214 23.8508 10.0911 24.8741 12.2367 25.2396C14.3823 25.6051 16.5884 25.2948 18.5499 24.3517C20.5115 23.4085 22.1315 21.8792 23.1858 19.9751C24.2401 18.071 24.6767 15.8864 24.4351 13.7233M17.5 11.3898V7.88981L21 4.38981V7.88981H24.5L21 11.3898H17.5ZM17.5 11.3898L14 14.8898M12.8333 14.8898C12.8333 15.1992 12.9563 15.496 13.175 15.7148C13.3938 15.9336 13.6906 16.0565 14 16.0565C14.3094 16.0565 14.6062 15.9336 14.825 15.7148C15.0438 15.496 15.1667 15.1992 15.1667 14.8898C15.1667 14.5804 15.0438 14.2836 14.825 14.0649C14.6062 13.8461 14.3094 13.7231 14 13.7231C13.6906 13.7231 13.3938 13.8461 13.175 14.0649C12.9563 14.2836 12.8333 14.5804 12.8333 14.8898Z" stroke="#191919" stroke-width="2.625" stroke-linecap="round" stroke-linejoin="round"/>
</svg>
